
		<svg xmlns="http://www.w3.org/2000/svg" xmlns:xlink="http://www.w3.org/1999/xlink" version="1.1" width="3173.4104046242774" height="719.6531791907514">
			
			<g transform="scale(8.670520231213873) translate(10, 10)">
				<defs id="SvgjsDefs1270"/><g id="main_text" rel="mainfill" name="main_text" feature="main_text" xmlns:name="mainText_mainfill" groupName="main_text" fill="#000" transform="translate(60.6023651827394, -24.940945406650116) scale(3.4940945406650115)"><path d="M12.36 24 l-0.98 -2.32 l-6.58 0 l-0.98 2.32 l-3.42 0 l6.22 -14 l2.94 0 l6.22 14 l-3.42 0 z M5.92 19.06 l4.36 0 l-2.18 -5.16 z M22.58 10 c3.96 0 7.1 3.12 7.1 6.9 c0 3.98 -3.14 7.1 -7.1 7.1 l-5.2 0 l0 -14 l5.2 0 z M22.56 20.96 c2.54 0 3.82 -1.84 3.82 -4.06 c0 -2.02 -1.28 -3.86 -3.82 -3.86 l-1.96 0 l0 7.92 l1.96 0 z M42.84 24 l-0.98 -2.32 l-6.58 0 l-0.98 2.32 l-3.42 0 l6.22 -14 l2.94 0 l6.22 14 l-3.42 0 z M36.4 19.06 l4.36 0 l-2.18 -5.16 z M52.839999999999996 10 c3.14 0 5.22 1.9 5.22 4.82 c0 2.88 -2.08 4.6 -5.22 4.6 l-1.76 0 l0 4.58 l-3.22 0 l0 -14 l4.98 0 z M52.64 16.68 c1.3 0 2.2 -0.46 2.2 -1.86 c0 -1.38 -0.9 -1.86 -2.2 -1.86 l-1.56 0 l0 3.72 l1.56 0 z M64.94 10 c3.14 0 5.22 1.9 5.22 4.82 c0 2.88 -2.08 4.6 -5.22 4.6 l-1.76 0 l0 4.58 l-3.22 0 l0 -14 l4.98 0 z M64.74 16.68 c1.3 0 2.2 -0.46 2.2 -1.86 c0 -1.38 -0.9 -1.86 -2.2 -1.86 l-1.56 0 l0 3.72 l1.56 0 z M81.68 10 l0 2.96 l-3.4 0 l0 11.04 l-3.22 0 l0 -11.04 l-3.4 0 l0 -2.96 l10.02 0 z"/></g><g id="SvgjsG1272" rel="mainfill" name="symbol" feature="symbol" xmlns:name="symbol_mainfill" fill="#000" transform="translate(-0.3757125952630571, 2.9242934378719854) scale(0.10556846903772775)"><metadata>Created by potrace 1.14, written by Peter Selinger 2001-2017</metadata><g transform="translate(0.000000,600.000000) scale(0.100000,-0.100000)" fill="#ff0004" stroke="#000"><path d="M2180 5694 c-216 -46 -369 -210 -416 -444 -21 -107 -14 -303 16 -434 11 -50 20 -93 20 -97 0 -4 -64 -28 -142 -54 -513 -170 -910 -395 -1169 -662 -155 -160 -237 -306 -259 -460 -43 -305 196 -573 623 -697 31 -9 57 -21 57 -27 0 -6 -13 -75 -29 -153 -62 -296 -75 -425 -76 -731 0 -301 10 -394 60 -585 99 -369 309 -575 585 -573 47 0 114 8 150 17 134 35 301 135 441 264 31 29 61 52 66 52 5 0 20 -12 34 -26 42 -46 235 -210 339 -289 324 -245 678 -423 960 -482 117 -24 314 -24 395 1 203 61 334 205 380 419 28 128 15 351 -30 528 -7 26 -5 27 122 69 874 285 1452 763 1453 1200 0 262 -226 495 -592 612 -96 30 -100 32 -94 57 67 317 91 472 107 715 21 334 -22 664 -117 895 -178 428 -542 537 -935 279 -46 -30 -121 -88 -167 -128 l-83 -72 -27 24 c-15 13 -56 51 -92 83 -553 500 -1191 783 -1580 699z m1005 -884 c88 -6 203 -17 255 -26 111 -17 272 -53 282 -63 4 -3 -9 -26 -29 -51 -60 -76 -187 -269 -258 -395 -118 -206 -212 -418 -299 -666 l-51 -146 0 246 c0 258 -13 380 -55 548 -61 236 -172 423 -306 512 -43 28 -44 30 -23 36 23 5 94 8 254 13 39 1 142 -3 230 -8z m-1296 -347 c23 -67 136 -296 201 -408 125 -218 301 -462 475 -659 50 -57 69 -84 50 -71 -301 197 -599 329 -834 369 -173 29 -329 16 -447 -38 -33 -15 -54 -20 -54 -13 0 17 143 275 216 391 35 56 89 136 121 178 65 86 242 288 252 288 4 0 13 -17 20 -37z m2602 -436 c104 -166 195 -340 252 -482 50 -122 112 -314 104 -321 -3 -3 -43 1 -89 8 -134 21 -707 18 -878 -5 -123 -17 -376 -60 -425 -73 -11 -3 30 21 90 53 464 248 764 545 829 823 9 36 16 82 16 103 0 22 4 36 10 32 5 -3 46 -65 91 -138z m-2061 -1238 c-355 -188 -647 -441 -758 -658 -48 -93 -61 -131 -76 -229 l-12 -76 -79 124 c-150 235 -296 549 -355 764 l-19 69 42 -6 c149 -22 307 -29 542 -24 274 5 467 25 695 71 63 13 120 24 125 25 6 0 -42 -27 -105 -60z m1282 -312 c377 -187 712 -234 935 -132 31 14 57 25 59 25 7 0 -81 -171 -142 -276 -115 -200 -246 -379 -387 -529 -58 -62 -66 -68 -73 -50 -115 308 -385 743 -657 1056 -39 46 -78 92 -86 102 -8 10 38 -16 102 -56 63 -41 175 -104 249 -140z m-817 -179 c1 -250 14 -377 60 -558 57 -227 170 -420 295 -501 41 -27 48 -35 35 -42 -24 -13 -493 -11 -615 2 -107 12 -329 53 -387 72 l-32 10 58 77 c135 179 239 353 356 596 78 161 171 390 211 519 10 31 18 57 18 57 1 0 1 -105 1 -232z"/></g></g>
			</g>
		</svg>
	